<svg width="106" height="55" viewBox="0 0 106 55" fill="none" xmlns="http://www.w3.org/2000/svg">
<path d="M19.0771 20.105C18.0971 20.105 17.1801 19.909 16.3261 19.517C15.4721 19.125 14.7161 18.586 14.0581 17.9C13.4141 17.2 12.9101 16.388 12.5461 15.464C12.1821 14.54 12.0001 13.539 12.0001 12.461C12.0001 11.439 12.1821 10.48 12.5461 9.584C12.9101 8.674 13.4211 7.876 14.0791 7.19C14.7371 6.504 15.5071 5.965 16.3891 5.573C17.2711 5.181 18.2301 4.985 19.2661 4.985C20.6521 4.985 21.8491 5.286 22.8571 5.888C23.8651 6.476 24.6211 7.26 25.1251 8.24L22.9621 9.836C22.5841 9.108 22.0521 8.548 21.3661 8.156C20.6941 7.75 19.9591 7.547 19.1611 7.547C18.3211 7.547 17.5791 7.778 16.9351 8.24C16.3051 8.702 15.8081 9.311 15.4441 10.067C15.0941 10.823 14.9191 11.649 14.9191 12.545C14.9191 13.483 15.1081 14.33 15.4861 15.086C15.8641 15.842 16.3821 16.444 17.0401 16.892C17.7121 17.326 18.4751 17.543 19.3291 17.543C20.7711 17.543 22.0731 16.864 23.2351 15.506V14.456H20.2321V12.335H25.6291V20H23.2351V18.32C22.0311 19.51 20.6451 20.105 19.0771 20.105ZM28.0989 20V5.09H30.9969V17.459H38.5989V20H28.0989ZM46.3975 20.105C45.3055 20.105 44.3115 19.895 43.4155 19.475C42.5335 19.055 41.7705 18.488 41.1265 17.774C40.4965 17.046 40.0065 16.234 39.6565 15.338C39.3065 14.428 39.1315 13.497 39.1315 12.545C39.1315 11.551 39.3135 10.606 39.6775 9.71C40.0415 8.8 40.5525 7.995 41.2105 7.295C41.8685 6.581 42.6385 6.021 43.5205 5.615C44.4165 5.195 45.3965 4.985 46.4605 4.985C47.5385 4.985 48.5185 5.202 49.4005 5.636C50.2965 6.07 51.0595 6.651 51.6895 7.379C52.3335 8.107 52.8235 8.926 53.1595 9.836C53.5095 10.732 53.6845 11.649 53.6845 12.587C53.6845 13.567 53.5025 14.512 53.1385 15.422C52.7745 16.318 52.2635 17.123 51.6055 17.837C50.9615 18.537 50.1915 19.09 49.2955 19.496C48.4135 19.902 47.4475 20.105 46.3975 20.105ZM42.0715 12.545C42.0715 13.413 42.2395 14.225 42.5755 14.981C42.9255 15.737 43.4225 16.353 44.0665 16.829C44.7245 17.305 45.5085 17.543 46.4185 17.543C47.3565 17.543 48.1475 17.298 48.7915 16.808C49.4355 16.318 49.9255 15.688 50.2615 14.918C50.5975 14.148 50.7655 13.357 50.7655 12.545C50.7655 11.677 50.5905 10.865 50.2405 10.109C49.8905 9.353 49.3865 8.744 48.7285 8.282C48.0845 7.806 47.3145 7.568 46.4185 7.568C45.4805 7.568 44.6895 7.813 44.0455 8.303C43.4015 8.793 42.9115 9.423 42.5755 10.193C42.2395 10.949 42.0715 11.733 42.0715 12.545ZM67.9195 16.157C67.9195 16.997 67.7025 17.704 67.2685 18.278C66.8345 18.838 66.2465 19.265 65.5045 19.559C64.7765 19.853 63.9785 20 63.1105 20H55.9075V5.09H63.8875C64.5875 5.09 65.1895 5.279 65.6935 5.657C66.1975 6.021 66.5895 6.497 66.8695 7.085C67.1495 7.673 67.2895 8.275 67.2895 8.891C67.2895 9.619 67.1075 10.305 66.7435 10.949C66.3795 11.579 65.8475 12.048 65.1475 12.356C66.0015 12.608 66.6735 13.063 67.1635 13.721C67.6675 14.379 67.9195 15.191 67.9195 16.157ZM58.8055 7.568V11.327H62.6695C63.1455 11.327 63.5585 11.159 63.9085 10.823C64.2585 10.487 64.4335 10.025 64.4335 9.437C64.4335 8.877 64.2725 8.429 63.9505 8.093C63.6425 7.743 63.2575 7.568 62.7955 7.568H58.8055ZM65.0005 15.611C65.0005 15.065 64.8325 14.596 64.4965 14.204C64.1605 13.812 63.7475 13.616 63.2575 13.616H58.8055V17.543H63.1105C63.6425 17.543 64.0905 17.354 64.4545 16.976C64.8185 16.598 65.0005 16.143 65.0005 15.611ZM73.9058 5.09H76.8458L82.3268 20H79.3448L77.9588 16.283H72.7508L71.3858 20H68.4038L73.9058 5.09ZM77.4338 14.246L75.3758 8.093L73.2338 14.246H77.4338ZM83.9622 20V5.09H86.8602V17.459H94.4622V20H83.9622ZM16.5918 44.45C16.5918 45.4667 16.3168 46.3167 15.7668 47C15.2168 47.6667 14.4835 48.1667 13.5668 48.5C12.6668 48.8333 11.6668 49 10.5668 49H1.9168V31.25H11.7918C12.6251 31.25 13.3418 31.475 13.9418 31.925C14.5418 32.3583 15.0085 32.925 15.3418 33.625C15.6751 34.325 15.8418 35.05 15.8418 35.8C15.8418 36.6333 15.6251 37.4333 15.1918 38.2C14.7585 38.9667 14.1251 39.5333 13.2918 39.9C14.2918 40.2 15.0918 40.7333 15.6918 41.5C16.2918 42.2667 16.5918 43.25 16.5918 44.45ZM6.0168 34.75V38.425H10.0418C10.4918 38.425 10.8918 38.275 11.2418 37.975C11.5918 37.675 11.7668 37.2083 11.7668 36.575C11.7668 35.9917 11.6085 35.5417 11.2918 35.225C10.9918 34.9083 10.6251 34.75 10.1918 34.75H6.0168ZM12.4168 43.625C12.4168 43.075 12.2585 42.6083 11.9418 42.225C11.6251 41.8417 11.2251 41.65 10.7418 41.65H6.0168V45.525H10.5668C11.0835 45.525 11.5168 45.35 11.8668 45C12.2335 44.6333 12.4168 44.175 12.4168 43.625ZM24.341 31.25H28.766L34.866 49H30.666L29.291 45.025H23.766L22.416 49H18.216L24.341 31.25ZM28.616 42.2L26.541 35.375L24.416 42.2H28.616ZM36.8641 45.925L45.9141 34.85H37.2141V31.25H50.8391V34.325L42.2141 45.4H50.9391V49H36.8641V45.925ZM59.2141 31.25H63.6391L69.7391 49H65.5391L64.1641 45.025H58.6391L57.2891 49H53.0891L59.2141 31.25ZM63.4891 42.2L61.4141 35.375L59.2891 42.2H63.4891ZM77.2121 31.25H81.6371L87.7371 49H83.5371L82.1621 45.025H76.6371L75.2871 49H71.0871L77.2121 31.25ZM81.4871 42.2L79.4121 35.375L77.2871 42.2H81.4871ZM90.7352 49V31.25H98.7352C99.5685 31.25 100.335 31.425 101.035 31.775C101.752 32.1083 102.368 32.5667 102.885 33.15C103.402 33.7167 103.802 34.3583 104.085 35.075C104.385 35.7917 104.535 36.5167 104.535 37.25C104.535 38.35 104.268 39.3667 103.735 40.3C103.218 41.2167 102.518 41.9167 101.635 42.4L105.535 49H101.01L97.6102 43.275H94.8352V49H90.7352ZM94.8352 39.7H98.5852C99.0685 39.7 99.4852 39.475 99.8352 39.025C100.185 38.5583 100.36 37.9667 100.36 37.25C100.36 36.5333 100.16 35.9583 99.7602 35.525C99.3602 35.075 98.9268 34.85 98.4602 34.85H94.8352V39.7Z" fill="white"/>
</svg>
